<?xml version="1.0" encoding="UTF-8"?>
<!DOCTYPE svg PUBLIC "-//W3C//DTD SVG 1.1//EN" "http://www.w3.org/Graphics/SVG/1.1/DTD/svg11.dtd">
<!-- Creator: CorelDRAW X8 -->
<svg xmlns="http://www.w3.org/2000/svg" xml:space="preserve" width="40px" height="40px" version="1.1" style="shape-rendering:geometricPrecision; text-rendering:geometricPrecision; image-rendering:optimizeQuality; fill-rule:evenodd; clip-rule:evenodd"
viewBox="0 0 40000 40002"
 xmlns:xlink="http://www.w3.org/1999/xlink">
 <defs>
  <style type="text/css">
   <![CDATA[
    .fil0 {fill:none}
    .fil1 {fill:white}
   ]]>
  </style>
 </defs>
 <g id="Camada_x0020_1">
  <metadata id="CorelCorpID_0Corel-Layer"/>
  <rect class="fil0" y="1" width="40000" height="40000"/>
  <path class="fil1" d="M13067 15394c529,-1052 1166,-2241 2449,-1894 632,170 1113,1245 -81,1903 -1308,722 -1556,-431 -2672,1629 -2,5 267,-655 -569,-1478 -4461,-4397 501,-6699 758,-1585 13,245 -81,1173 115,1425zm12508 5348c-32,-110 -65,-216 -98,-320l0 -11 -1 7c-189,-596 -382,-1085 -534,-1395 -145,-293 -495,-117 -320,248 302,467 567,1046 776,1687 -285,1516 -881,849 -1692,1853 -816,1012 -6,1787 615,1709 1257,-156 1391,-1436 1478,-2553 265,151 515,1004 615,1215 2071,4421 5619,601 98,-1673 -563,-231 -819,-537 -937,-767zm-14699 14145c381,166 541,384 736,577 223,224 492,416 1198,469 2,0 -1404,593 -2013,814 -1524,555 -2216,-45 -2068,-954 140,-858 794,-1497 2147,-906zm3817 567c-1365,-65 -2929,-180 -3166,-1707 -117,-752 796,-1768 2058,-811 1383,1047 50,2037 2763,2250 7,0 -593,-157 -1073,1118 -2563,6813 -7348,2632 -2040,-56 255,-129 1285,-467 1458,-794zm4409 -1126c-1324,333 -2852,677 -3523,-714 -329,-685 249,-1922 1734,-1373 1626,600 638,1934 3294,1350 7,-1 -612,23 -700,1381 -476,7259 -6266,4649 -1969,539 206,-198 1092,-820 1164,-1183zm3292 -2628c-1128,770 -2445,1620 -3554,545 -546,-529 -429,-1890 1155,-1888 1734,4 1265,1596 3558,133 6,-4 -567,232 -182,1539 2055,6976 -4279,6522 -1662,1183 125,-256 743,-1146 685,-1512zm2367 -2762c-802,784 -1744,1659 -2794,948 -518,-350 -618,-1466 662,-1690 1402,-246 1448,693 3092,-818 4,-4 -621,684 -124,1685 2661,5347 -2525,5885 -1174,1195 65,-226 437,-1033 338,-1320zm1321 -3610c-505,1002 -1112,2136 -2335,1805 -604,-163 -1061,-1186 77,-1814 1247,-688 1483,411 2547,-1552 2,-5 -254,623 542,1408 4253,4193 -476,6387 -723,1511 -12,-234 79,-1118 -108,-1358zm-12484 -5122c35,114 69,226 103,335l0 11 1 -8c199,625 401,1139 561,1464 151,307 519,122 335,-261 -317,-489 -595,-1096 -814,-1768 300,-1592 925,-892 1775,-1946 856,-1060 6,-1873 -645,-1793 -1319,166 -1459,1508 -1551,2679 -277,-157 -541,-1052 -645,-1274 -2172,-4638 -5895,-631 -102,1754 590,243 859,564 982,807zm15420 -14840c-401,-175 -568,-403 -771,-606 -235,-234 -518,-436 -1258,-491 -1,0 1473,-622 2113,-856 1598,-581 2324,48 2168,1003 -146,899 -832,1570 -2252,950zm-4004 -594c1431,67 3072,188 3321,1789 123,789 -835,1856 -2160,852 -1450,-1099 -51,-2137 -2897,-2360 -7,-1 621,164 1125,-1174 2688,-7146 7709,-2760 2140,59 -266,136 -1347,490 -1529,834zm-4625 1181c1389,-350 2993,-711 3695,749 346,718 -261,2016 -1819,1439 -1706,-629 -669,-2027 -3456,-1416 -7,2 643,-23 736,-1449 499,-7613 6572,-4876 2065,-563 -216,206 -1147,858 -1221,1240zm-3454 2755c1183,-806 2564,-1698 3728,-570 572,555 450,1983 -1211,1980 -1819,-4 -1328,-1674 -3732,-140 -6,5 594,-243 191,-1613 -2157,-7320 4488,-6843 1743,-1242 -132,270 -780,1203 -719,1585zm-2483 2899c841,-822 1830,-1740 2932,-996 542,368 647,1539 -696,1774 -1470,258 -1518,-727 -3243,858 -4,5 652,-717 130,-1767 -2791,-5609 2649,-6175 1232,-1253 -69,236 -460,1083 -355,1384z"/>
 </g>
</svg>
