<?xml version="1.0" encoding="UTF-8"?>
<!DOCTYPE svg PUBLIC "-//W3C//DTD SVG 1.1//EN" "http://www.w3.org/Graphics/SVG/1.1/DTD/svg11.dtd">
<!-- Creator: CorelDRAW X8 -->
<svg xmlns="http://www.w3.org/2000/svg" xml:space="preserve" width="607px" height="191px" version="1.1" style="shape-rendering:geometricPrecision; text-rendering:geometricPrecision; image-rendering:optimizeQuality; fill-rule:evenodd; clip-rule:evenodd"
viewBox="0 0 606999 190780"
 xmlns:xlink="http://www.w3.org/1999/xlink">
 <defs>
  <style type="text/css">
   <![CDATA[
    .fil0 {fill:white}
    .fil1 {fill:white;fill-rule:nonzero}
   ]]>
  </style>
 </defs>
 <g id="Camada_x0020_1">
  <metadata id="CorelCorpID_0Corel-Layer"/>
  <g id="_1720141549008">
   <path class="fil0" d="M20786 73414c2519,-5009 5558,-10683 11681,-9030 3016,816 5305,5936 -391,9077 -6233,3439 -7416,-2055 -12738,7768 -13,25 1268,-3122 -2714,-7048 -21277,-20974 2386,-31955 3615,-7561 59,1171 -391,5597 547,6794zm59658 25508c-156,-523 -313,-1033 -469,-1527l-3 -49 -2 30c-904,-2841 -1821,-5176 -2550,-6649 -692,-1396 -2356,-557 -1524,1181 1441,2227 2704,4985 3702,8045 -1362,7233 -4207,4051 -8068,8839 -3896,4825 -29,8521 2926,8151 6000,-748 6637,-6850 7055,-12179 1259,717 2456,4787 2930,5798 9878,21084 26802,2863 467,-7976 -2683,-1104 -3905,-2567 -4464,-3664zm-70110 67464c1820,794 2581,1828 3509,2755 1066,1062 2351,1984 5715,2234 8,0 -6697,2827 -9602,3884 -7266,2643 -10571,-213 -9861,-4554 665,-4089 3787,-7136 10239,-4319zm18205 2703c-6509,-310 -13968,-857 -15102,-8139 -559,-3587 3799,-8434 9822,-3871 6594,4997 233,9715 13176,10731 30,4 -2828,-746 -5117,5337 -12224,32489 -35049,12551 -9734,-271 1214,-616 6126,-2225 6955,-3787zm21031 -5371c-6316,1591 -13607,3233 -16805,-3404 -1573,-3270 1187,-9168 8271,-6549 7759,2866 3042,9223 15714,6440 31,-7 -2920,106 -3347,6588 -2269,34617 -29881,22167 -9386,2564 983,-941 5212,-3905 5553,-5639zm15698 -12533c-5379,3671 -11658,7725 -16946,2599 -2604,-2526 -2047,-9015 5506,-9000 8268,16 6035,7609 16971,629 26,-16 -2705,1108 -871,7337 9805,33277 -20405,31109 -7926,5646 599,-1223 3546,-5465 3266,-7211zm11291 -13173c-3825,3736 -8319,7911 -13328,4524 -2468,-1668 -2944,-6994 3162,-8064 6688,-1169 6904,3307 14744,-3900 19,-17 -2963,3261 -589,8036 12690,25500 -12044,28072 -5600,5698 310,-1073 2086,-4924 1611,-6294zm6297 -17218c-2402,4778 -5299,10188 -11135,8610 -2877,-775 -5058,-5659 371,-8654 5944,-3278 7069,1961 12146,-7403 13,-23 -1209,2973 2587,6718 20280,19994 -2275,30462 -3448,7207 -55,-1114 374,-5336 -521,-6478zm-59538 -24433c161,550 325,1082 491,1599l2 53 4 -32c946,2981 1908,5431 2674,6978 724,1464 2472,582 1598,-1240 -1512,-2335 -2834,-5231 -3881,-8439 1426,-7589 4411,-4251 8461,-9273 4088,-5063 30,-8937 -3071,-8553 -6294,785 -6961,7187 -7398,12779 -1322,-755 -2580,-5023 -3075,-6084 -10364,-22115 -28117,-3003 -490,8369 2816,1158 4099,2692 4685,3843zm73543 -70771c-1908,-833 -2708,-1918 -3680,-2890 -1118,-1115 -2466,-2081 -5996,-2342 -5,0 7024,-2966 10074,-4078 7622,-2773 11086,224 10344,4778 -698,4289 -3974,7486 -10742,4532zm-19096 -2835c6827,326 14652,897 15843,8538 586,3761 -3984,8848 -10304,4060 -6918,-5243 -246,-10191 -13822,-11258 -32,-1 2967,783 5368,-5596 12822,-34083 36768,-13168 10211,280 -1275,645 -6426,2338 -7296,3976zm-22061 5634c6625,-1671 14273,-3390 17627,3570 1651,3430 -1244,9617 -8675,6870 -8138,-3004 -3192,-9675 -16483,-6756 -33,8 3062,-113 3507,-6910 2383,-36314 31349,-23253 9849,-2692 -1030,987 -5468,4100 -5825,5918zm-16469 13144c5643,-3850 12230,-8102 17779,-2723 2731,2649 2145,9456 -5777,9440 -8675,-18 -6332,-7983 -17803,-661 -27,18 2838,-1159 912,-7697 -10283,-34906 21410,-32634 8319,-5920 -629,1281 -3723,5733 -3430,7561zm-11844 13823c4011,-3920 8727,-8301 13981,-4747 2589,1749 3090,7336 -3317,8457 -7015,1229 -7241,-3468 -15467,4094 -19,18 3109,-3424 618,-8432 -13311,-26748 12635,-29446 5876,-5976 -325,1125 -2189,5165 -1691,6604z"/>
   <path class="fil0" d="M511909 137014l83050 0c5502,0 10005,4501 10005,10003l0 18015c0,5503 -4503,10004 -10005,10004l-83050 0c-5499,0 -10001,-4501 -10001,-10004l0 -18015c0,-5502 4502,-10003 10001,-10003zm17893 25824l1534 3962 5833 0 -9056 -21487 -5619 0 -9267 21487 5615 0 1567 -3962 9393 0zm-1597 -4143l-6203 0 3134 -7949 3069 7949zm25076 -8993l0 -4420 -18355 0 0 4420 6416 0 0 17098 5465 0 0 -17098 6474 0zm14304 13136l1535 3962 5832 0 -9055 -21487 -5615 0 -9272 21487 5615 0 1567 -3962 9393 0zm-1597 -4143l-6199 0 3132 -7949 3067 7949zm19124 -13629c-5158,0 -8563,2518 -8563,6477 0,7612 11356,5342 11356,9148 0,1228 -1075,1872 -2793,1872 -2239,0 -5557,-1289 -7767,-3223l-2114 4205c2548,2088 6229,3438 9818,3438 4791,0 8596,-2272 8596,-6570 0,-7764 -11355,-5647 -11355,-9361 0,-1043 950,-1564 2363,-1564 1747,0 4603,921 6874,2241l2057 -4269c-2210,-1440 -5370,-2394 -8472,-2394z"/>
   <path class="fil1" d="M151953 122277c-1298,-535 -1681,-1529 -1681,-3058 0,-6193 229,-9100 457,-11240 154,-1375 460,-1835 917,-1835 535,0 612,689 689,1300 78,764 152,1454 383,2370 1301,6271 7035,9864 12998,9864 7263,0 9481,-3747 9481,-7035 0,-3212 -612,-5888 -7109,-10323l-4743 -3287c-9326,-6574 -11926,-11925 -11926,-18655 0,-8792 7264,-15905 19497,-15905 3286,0 5581,155 8792,766 1225,230 2524,535 3746,917 767,231 995,461 995,1072 -154,2447 -306,3976 -306,10779 0,1378 -228,1913 -843,1913 -380,0 -686,-230 -840,-1453 -74,-766 -304,-2675 -1375,-4434 -1453,-2447 -4971,-5047 -10475,-5047 -6270,0 -8565,3518 -8565,7035 0,2597 917,5579 6117,9098l3902 2600c10705,7110 14069,11851 14069,19571 0,5277 -2373,10476 -8107,13841 -4434,2675 -9326,3287 -13303,3287 -5736,0 -9787,-764 -12770,-2141z"/>
   <path class="fil1" d="M250579 101404c459,0 459,-231 381,-382l-6727 -16361c-230,-534 -384,-383 -534,0l-6501 16361c-76,228 78,382 306,382l13075 0zm-15292 6117c-382,0 -535,152 -689,535l-2369 6269c-765,1989 -1225,3975 -1225,4894 0,1454 688,2141 2295,2295 840,151 2064,229 2676,306 1147,0 1375,383 1375,764 0,611 -610,765 -1603,765 -3443,0 -6040,-232 -10094,-232 -841,0 -5887,232 -9710,232 -1072,0 -1529,-306 -1529,-765 0,-611 534,-764 1452,-764 917,-77 1684,-155 2447,-306 2676,-536 4205,-2907 5811,-6576l20415 -46180c1452,-3291 2292,-4436 3135,-4436 763,0 1452,1070 2754,3824 1986,4281 14830,33564 20030,45186 2600,5964 4282,7799 6958,8182 843,229 1759,229 2449,306 994,0 1452,306 1452,764 0,533 -536,765 -1989,765 -7492,0 -16210,-154 -21102,-232 -1224,0 -1684,-229 -1684,-686 0,-458 383,-766 1071,-917 841,-154 1148,-689 918,-1378l-5123 -12157c-77,-306 -383,-458 -612,-458l-17509 0z"/>
   <path class="fil1" d="M330622 101250c0,7724 -230,13229 1070,14835 1069,1452 2523,1835 8870,1835 4204,0 6651,-77 8792,-1223 1836,-843 3136,-2830 3976,-6423 229,-840 383,-1452 995,-1452 534,0 612,380 612,1452 0,1758 -844,9022 -1607,11240 -612,1989 -1223,2063 -4279,2063 -10553,0 -17665,-460 -25771,-460 -3592,0 -7721,232 -11926,232 -1072,0 -1684,-154 -1684,-841 0,-459 458,-688 1530,-688 917,-77 1759,-155 2601,-306 2750,-459 2827,-1836 3056,-7952 154,-3059 231,-7646 231,-12389l0 -13454c0,-12464 -77,-13839 -231,-16287 -151,-2140 -687,-3441 -2598,-3975 -690,-228 -1836,-306 -2984,-383 -838,0 -1605,-151 -1605,-764 0,-612 767,-765 2294,-765 4358,0 8335,229 11316,229 688,0 10169,-229 12923,-229 1374,0 1834,229 1834,689 0,689 -764,840 -1834,840 -766,77 -1531,77 -2599,306 -2066,383 -2601,1835 -2756,4511 -151,2446 -226,3975 -226,16592l0 12767z"/>
   <path class="fil1" d="M389562 73267c-2141,-4740 -2980,-5427 -5581,-5964 -610,-152 -1301,-230 -1760,-230 -839,-152 -1223,-458 -1223,-839 0,-536 612,-689 1607,-689 4128,0 8563,228 11623,228 2675,0 6803,-228 12768,-228 1147,0 1758,306 1758,765 0,458 -457,763 -1146,763 -919,78 -1378,78 -2064,230 -1990,307 -2295,1148 -2295,1911 0,995 458,2524 1758,5812 3596,9329 8411,20720 11850,29665 3135,-7033 11090,-25766 13613,-32953 383,-840 612,-1835 612,-2524 0,-994 -459,-1529 -1838,-1757 -918,-228 -2218,-306 -3056,-384 -996,-75 -1376,-305 -1376,-763 0,-459 380,-765 1680,-765 5045,0 8797,228 9943,228 1147,0 6116,-228 8484,-228 1146,0 1684,228 1684,765 0,535 -383,763 -1375,763 -917,78 -2143,78 -3365,690 -1609,764 -2677,2369 -4819,6880 -3056,6576 -5812,12771 -10168,22479 -4895,10857 -8180,17816 -10169,21791 -2219,4510 -2983,5505 -3978,5505 -1071,0 -1682,-1069 -3135,-4587l-20032 -46564z"/>
   <path class="fil1" d="M494149 99187c0,10551 1606,14986 5811,17967 3136,2065 5737,2142 7646,2142 2448,0 5737,-536 8413,-2828 4282,-3672 4282,-11699 4282,-19574l0 -9175c0,-11241 0,-13228 -154,-15675 -155,-2907 -763,-4204 -3290,-4664 -838,-151 -1296,-151 -2827,-306 -991,0 -1375,-306 -1375,-764 0,-459 384,-765 1759,-765 4358,0 9022,229 10244,229 1375,0 6345,-229 10093,-229 1150,0 1605,229 1605,765 0,383 -305,688 -1296,764 -843,77 -1301,77 -2373,306 -2064,383 -2677,1528 -2906,4664 -154,2447 -230,4434 -230,15675l0 7492c0,8717 -379,18121 -7799,24161 -4740,3977 -10702,5045 -15905,5045 -6728,0 -13453,-994 -18193,-5121 -4056,-3365 -7112,-8948 -7112,-19958l0 -11619c0,-11853 0,-13993 -229,-16438 -155,-2144 -614,-3135 -2373,-3671 -842,-307 -2595,-459 -3288,-536 -1143,-76 -1605,-381 -1605,-840 0,-460 612,-689 2064,-689 3288,0 11013,229 11701,229 609,0 9710,-229 12461,-229 1301,0 1684,229 1684,689 0,611 -383,764 -1379,840 -685,77 -1757,155 -2524,306 -2137,460 -2521,2063 -2675,4511 -150,2446 -230,6042 -230,15828l0 11468z"/>
   <path class="fil1" d="M572818 122277c-1301,-535 -1685,-1529 -1685,-3058 0,-6193 234,-9100 463,-11240 150,-1375 455,-1835 917,-1835 534,0 613,689 688,1300 75,764 150,1454 379,2370 1301,6271 7037,9864 12999,9864 7262,0 9480,-3747 9480,-7035 0,-3212 -608,-5888 -7108,-10323l-4740 -3287c-9330,-6574 -11927,-11925 -11927,-18655 0,-8792 7262,-15905 19499,-15905 3284,0 5577,155 8787,766 1226,230 2527,535 3749,917 767,231 996,461 996,1072 -155,2447 -305,3976 -305,10779 0,1378 -233,1913 -841,1913 -385,0 -689,-230 -843,-1453 -76,-766 -305,-2675 -1376,-4434 -1454,-2447 -4969,-5047 -10477,-5047 -6269,0 -8563,3518 -8563,7035 0,2597 918,5579 6117,9098l3902 2600c10701,7110 14070,11851 14070,19571 0,5277 -2372,10476 -8109,13841 -4435,2675 -9330,3287 -13303,3287 -5732,0 -9789,-764 -12769,-2141z"/>
  </g>
 </g>
</svg>
